<svg width="48" height="48" viewBox="0 0 48 48" fill="none" xmlns="http://www.w3.org/2000/svg">
<g filter="url(#filter0_d_318_1096)">
<path opacity="0.5" d="M43.9903 0.270225L34.2035 36.8334C34.1538 36.9993 33.9547 37.0491 33.8386 36.9329L27.2864 30.3771L32.1964 12.0541C32.2462 11.8881 32.0969 11.7387 31.931 11.7885L13.6181 16.7012L7.09917 10.1786C6.98306 10.0624 7.03282 9.86327 7.1987 9.81348L43.7249 0.00467392C43.8907 -0.02852 44.04 0.120853 43.9903 0.270225Z" fill="#00B37E"/>
<path opacity="0.5" d="M27.2861 30.3768L24.7648 39.8371C24.715 40.0031 24.516 40.0529 24.3998 39.9367L4.06328 19.6054C3.94717 19.4892 3.99693 19.2901 4.16281 19.2403L13.6178 16.7009L27.2861 30.3768Z" fill="#00B37E"/>
<path d="M32.1957 12.0538L27.2857 30.3768L13.6174 16.7009L31.9303 11.7882C32.0962 11.7384 32.2454 11.8878 32.1957 12.0538Z" fill="#00B37E"/>
</g>
<defs>
<filter id="filter0_d_318_1096" x="0" y="0" width="48" height="48" filterUnits="userSpaceOnUse" color-interpolation-filters="sRGB">
<feFlood flood-opacity="0" result="BackgroundImageFix"/>
<feColorMatrix in="SourceAlpha" type="matrix" values="0 0 0 0 0 0 0 0 0 0 0 0 0 0 0 0 0 0 127 0" result="hardAlpha"/>
<feOffset dy="4"/>
<feGaussianBlur stdDeviation="2"/>
<feComposite in2="hardAlpha" operator="out"/>
<feColorMatrix type="matrix" values="0 0 0 0 0 0 0 0 0 0 0 0 0 0 0 0 0 0 0.25 0"/>
<feBlend mode="normal" in2="BackgroundImageFix" result="effect1_dropShadow_318_1096"/>
<feBlend mode="normal" in="SourceGraphic" in2="effect1_dropShadow_318_1096" result="shape"/>
</filter>
</defs>
</svg>
